<svg xmlns="http://www.w3.org/2000/svg" xmlns:xlink="http://www.w3.org/1999/xlink" width="227" height="209" viewBox="289.0625 300.78125 443.35931396484375 408.20306396484375" style=""><path fill="white" d="M0 0L1024 0L1024 1024L0 1024L0 0Z"/><path fill="#171715" d="M461.352 319.65C462.382 319.567 463.415 319.516 464.448 319.496C472.141 319.393 480.284 321.99 485.702 327.56C496.377 338.537 494.481 357.707 494.456 371.921C494.396 387.072 494.232 402.221 493.964 417.369C492.294 415.898 490.562 414.499 488.773 413.176C476.594 404.248 463.159 402.282 448.541 404.544L453.015 416.979C465.562 415.608 477.338 418.263 486.071 427.938C496.29 439.258 494.514 454.762 494.413 468.895L494.12 509.187L493.97 572.571C493.943 584.094 494.256 598.273 493.51 609.561C474.242 591.797 456.618 593.452 437.858 610.278C431.737 605.558 427.5 604.251 420.062 602.558C413.44 577.146 393.35 572.979 370.311 573.471C370.237 577.843 370.379 582.328 370.464 586.708C377.079 585.889 383.751 585.426 390.414 587.689C397.447 590.079 409.542 598.136 406.198 607.046C404.981 610.287 401.395 611.786 398.33 613.001L401.468 624.74C409.159 622.953 412.807 620.718 418.352 615.426C436.414 619.37 439.121 629.972 439.903 646.317C443.835 646.486 448.403 647.04 452.368 647.424C453.433 635.126 452.951 630.648 447.287 619.701C453.475 611.73 460.691 608.166 470.794 610.656C501.22 618.156 502.4 667.073 476.547 680.781C465.052 686.876 454.022 686.756 441.868 683.265C430.155 678.834 425.628 674.147 418.562 663.903C403.991 664.848 392.136 664.162 380.131 654.628C368.537 645.422 363.35 630.979 361.843 616.623C335.784 605.005 328.915 585.255 334.523 558.488C324.23 547.271 317.699 536.385 318.149 520.628C318.569 505.938 325.058 494.723 335.573 484.904C327.494 462.088 333.66 446.413 351.061 430.763C351.368 413.625 356.209 396.405 375.216 391.29C384.023 388.92 390.573 391.869 397.995 396.342C391.053 412.125 391.594 422.397 395.87 438.761C399.911 438.084 403.956 437.431 408.005 436.804C404.009 420.117 403.445 404.851 416.311 391.616C423.468 384.197 433.309 379.97 443.617 379.888C452.898 379.894 457.42 383.046 463.503 389.166C466.273 386.663 469.92 382.141 472.443 379.195C465.908 373.11 460.429 370.278 452.029 367.65C451.945 360.545 452.588 356.081 453.822 349.106C449.815 348.827 445.806 348.585 441.794 348.379C440.255 355.239 440.034 360.294 439.56 367.297C425.452 368.391 414.718 375.611 405.052 385.285C394.696 378.755 387.145 377.255 375.052 378.984C376.937 369.207 382.997 357.919 390.822 351.665C403.095 341.856 416.394 340.694 431.33 342.058C438.164 329.005 446.572 321.839 461.352 319.65Z"/><path fill="white" d="M460.211 426.074C461.777 425.95 462.133 425.768 463.557 426.412C465.594 429.015 464.785 434.601 464.637 438.13C458.431 439.569 449.425 442.726 449.018 449.966C448.341 461.995 461.831 464.145 470.276 464.536C470.307 468.827 470.289 473.118 470.223 477.408C454.667 476.411 447.408 475.586 438.427 461.564C427.092 462.626 420.922 463.865 412.428 471.709C406.346 478.06 404.763 484.925 403.859 493.294C399.936 493.05 395.343 493.101 391.365 493.048C394.727 463.614 407.343 452.978 435.953 448.475C438.509 434.313 447.134 428.897 460.211 426.074Z"/><path fill="white" d="M406.72 520.198C424.337 520.969 442.72 527.421 451.133 543.915C458.547 558.449 458.535 563.732 476.619 566.163C476.579 570.639 476.587 574.668 476.138 579.139C474.962 579.024 473.787 578.886 472.615 578.727C438.701 574.023 450.341 549.507 425.06 536.761C419.676 534.046 412.786 533.159 406.813 532.404C406.624 529.027 406.359 523.454 406.72 520.198Z"/><path fill="white" d="M352.054 521.91C370.301 522.741 385.293 529.005 396.713 543.618C399.105 546.679 401.237 549.439 401.278 553.484C400.391 555.337 400.766 554.727 398.377 555.784L390.112 559.265C381.837 540.669 370.718 536.844 351.657 534.309L352.054 521.91Z"/><path fill="white" d="M348.055 460.919C351.697 461.03 356.939 461.775 360.672 462.194C358.153 480.781 362.535 490.365 382.002 493.769C381.298 497.136 380.075 500.837 379.061 504.155L378.286 505.669C377.064 506.27 375.99 506.447 374.617 506.088C351.644 500.083 344.802 481.688 348.055 460.919Z"/><path fill="white" d="M443.071 489.908C447.44 490.226 451.423 490.825 455.741 491.454C456.22 499.936 456.404 502.181 458.93 510.404L455.807 512.088L447.519 515.723C443.344 506.154 443.003 500.312 443.071 489.908Z"/><path fill="#2DE383" d="M702.196 446.5C702.473 447.203 702.716 447.919 702.924 448.645C704.349 453.489 705.626 464.861 706.088 470.049C709.092 503.811 704.573 538.59 687.522 568.372C670.503 597.662 643.959 620.233 612.315 632.324C597.288 638.186 582.058 641.173 566.809 646.235C545.632 653.264 527.458 667.834 516.362 687.222C527.436 630.366 572.826 587.618 618.333 555.964C625.98 550.287 635.33 544.433 643.354 539.13C642.281 539.491 641.211 539.863 640.146 540.247C596.539 556.18 536.451 601.358 516.535 644.326C490.467 562.388 542.235 489.544 626.979 480.486C660.838 476.867 678.446 470.625 702.196 446.5Z"/><path fill="#2DE383" d="M630.192 364.849C631.948 367.275 634.422 371.839 635.667 374.586C649.624 405.372 648.901 433.769 637.809 464.857C628.225 465.897 618.733 466.814 609.265 468.648C571.446 475.763 538.025 497.662 516.402 529.496L509.94 540.097C508.958 500.987 509.355 465.809 537.487 434.889C546.851 424.514 558.187 416.108 570.834 410.16C604.066 394.378 610.608 400.367 630.192 364.849Z"/><path fill="#2DE383" d="M535.597 320.155C555.09 317.446 571.786 331.149 580.331 347.567C587.096 360.564 588.055 374.855 586.939 389.202C564.948 395.925 549.074 403.079 531.775 418.594C522.263 427.947 515.154 438.756 509.379 450.754L509.502 384.372C509.508 376.046 509.636 367.179 509.539 358.897C509.297 338.274 512.655 323.808 535.597 320.155Z"/></svg>